# MagicaVoxel @ Ephtracy

# group
o 

# material
mtllib website7.vox.mtl
usemtl palette

# normals
vn -1 0 0
vn 1 0 0
vn 0 0 1
vn 0 0 -1
vn 0 -1 0
vn 0 1 0

# texcoords
vt 0.373047 0.5
vt 0.845703 0.5
vt 0.892578 0.5
vt 0.958984 0.5
vt 0.994141 0.5

# verts
v 1.8 3.1 -7.8
v 1.8 3.1 -8
v 1.8 7.6 -7.8
v 1.8 7.6 -8
v 4.5 3.5 -7.8
v 4.5 3.5 -7.9
v 4.5 7.2 -7.8
v 4.5 7.2 -7.9
v 2.1 3.5 -7.8
v 2.1 3.5 -7.9
v 2.1 7.2 -7.8
v 2.1 7.2 -7.9
v 4.8 3.1 -7.8
v 4.8 3.1 -8
v 4.8 7.6 -7.8
v 4.8 7.6 -8
v 1.8 3.1 -7.8
v 1.8 7.6 -7.8
v 2.1 3.5 -7.8
v 2.1 7.2 -7.8
v 4.5 3.5 -7.8
v 4.5 7.2 -7.8
v 4.8 3.1 -7.8
v 4.8 7.6 -7.8
v 2.1 3.5 -7.9
v 2.1 7.2 -7.9
v 2.4 4.3 -7.9
v 2.4 5.6 -7.9
v 2.5 4.5 -7.9
v 2.5 5.3 -7.9
v 2.5 5.5 -7.9
v 2.5 5.6 -7.9
v 2.5 5.7 -7.9
v 2.6 4.4 -7.9
v 2.6 4.5 -7.9
v 2.6 4.6 -7.9
v 2.6 5.2 -7.9
v 2.6 5.3 -7.9
v 2.6 5.5 -7.9
v 2.6 5.6 -7.9
v 2.6 5.7 -7.9
v 2.6 5.8 -7.9
v 2.7 4.5 -7.9
v 2.7 4.6 -7.9
v 2.7 4.8 -7.9
v 2.7 5.1 -7.9
v 2.7 5.2 -7.9
v 2.7 5.3 -7.9
v 2.7 5.7 -7.9
v 2.7 5.8 -7.9
v 2.7 6.4 -7.9
v 2.8 4.6 -7.9
v 2.8 4.8 -7.9
v 2.8 4.9 -7.9
v 2.8 5 -7.9
v 2.8 5.1 -7.9
v 2.8 6.3 -7.9
v 2.9 4.8 -7.9
v 2.9 4.9 -7.9
v 2.9 5 -7.9
v 2.9 5.1 -7.9
v 2.9 5.2 -7.9
v 2.9 5.3 -7.9
v 2.9 5.5 -7.9
v 2.9 5.6 -7.9
v 2.9 5.7 -7.9
v 2.9 5.8 -7.9
v 2.9 5.9 -7.9
v 3 4.8 -7.9
v 3 4.9 -7.9
v 3 5 -7.9
v 3.1 4.6 -7.9
v 3.1 4.8 -7.9
v 3.1 4.9 -7.9
v 3.1 6.1 -7.9
v 3.1 6.2 -7.9
v 3.5 4.6 -7.9
v 3.5 4.8 -7.9
v 3.5 4.9 -7.9
v 3.5 5.1 -7.9
v 3.5 5.2 -7.9
v 3.5 6.1 -7.9
v 3.5 6.2 -7.9
v 3.6 4.8 -7.9
v 3.6 4.9 -7.9
v 3.6 5 -7.9
v 3.7 4.8 -7.9
v 3.7 4.9 -7.9
v 3.7 5 -7.9
v 3.7 5.1 -7.9
v 3.7 5.3 -7.9
v 3.7 5.5 -7.9
v 3.7 5.6 -7.9
v 3.7 5.7 -7.9
v 3.7 5.8 -7.9
v 3.7 5.9 -7.9
v 3.8 4.6 -7.9
v 3.8 4.8 -7.9
v 3.8 4.9 -7.9
v 3.8 5 -7.9
v 3.8 5.1 -7.9
v 3.8 6.3 -7.9
v 3.9 4.5 -7.9
v 3.9 4.6 -7.9
v 3.9 4.8 -7.9
v 3.9 5.1 -7.9
v 3.9 5.2 -7.9
v 3.9 5.3 -7.9
v 3.9 5.7 -7.9
v 3.9 5.8 -7.9
v 3.9 6.4 -7.9
v 4 4.4 -7.9
v 4 4.5 -7.9
v 4 4.6 -7.9
v 4 5.2 -7.9
v 4 5.3 -7.9
v 4 5.5 -7.9
v 4 5.6 -7.9
v 4 5.7 -7.9
v 4 5.8 -7.9
v 4.1 4.5 -7.9
v 4.1 5.3 -7.9
v 4.1 5.5 -7.9
v 4.1 5.6 -7.9
v 4.1 5.7 -7.9
v 4.2 4.3 -7.9
v 4.2 5.6 -7.9
v 4.5 3.5 -7.9
v 4.5 7.2 -7.9
v 1.8 3.1 -8
v 1.8 7.6 -8
v 2.1 3.5 -8
v 2.1 7.2 -8
v 2.4 4.3 -8
v 2.4 5.6 -8
v 2.5 4.5 -8
v 2.5 5.3 -8
v 2.5 5.5 -8
v 2.5 5.6 -8
v 2.5 5.7 -8
v 2.6 4.4 -8
v 2.6 4.5 -8
v 2.6 4.6 -8
v 2.6 5.2 -8
v 2.6 5.3 -8
v 2.6 5.5 -8
v 2.6 5.6 -8
v 2.6 5.7 -8
v 2.6 5.8 -8
v 2.7 4.5 -8
v 2.7 4.6 -8
v 2.7 4.8 -8
v 2.7 5.1 -8
v 2.7 5.2 -8
v 2.7 5.3 -8
v 2.7 5.7 -8
v 2.7 5.8 -8
v 2.7 6.4 -8
v 2.8 4.6 -8
v 2.8 4.8 -8
v 2.8 4.9 -8
v 2.8 5 -8
v 2.8 5.1 -8
v 2.8 6.3 -8
v 2.9 4.8 -8
v 2.9 4.9 -8
v 2.9 5 -8
v 2.9 5.1 -8
v 2.9 5.2 -8
v 2.9 5.3 -8
v 2.9 5.5 -8
v 2.9 5.6 -8
v 2.9 5.7 -8
v 2.9 5.8 -8
v 2.9 5.9 -8
v 3 4.8 -8
v 3 4.9 -8
v 3 5 -8
v 3.1 4.6 -8
v 3.1 4.8 -8
v 3.1 4.9 -8
v 3.1 6.1 -8
v 3.1 6.2 -8
v 3.5 4.6 -8
v 3.5 4.8 -8
v 3.5 4.9 -8
v 3.5 5.1 -8
v 3.5 5.2 -8
v 3.5 6.1 -8
v 3.5 6.2 -8
v 3.6 4.8 -8
v 3.6 4.9 -8
v 3.6 5 -8
v 3.7 4.8 -8
v 3.7 4.9 -8
v 3.7 5 -8
v 3.7 5.1 -8
v 3.7 5.3 -8
v 3.7 5.5 -8
v 3.7 5.6 -8
v 3.7 5.7 -8
v 3.7 5.8 -8
v 3.7 5.9 -8
v 3.8 4.6 -8
v 3.8 4.8 -8
v 3.8 4.9 -8
v 3.8 5 -8
v 3.8 5.1 -8
v 3.8 6.3 -8
v 3.9 4.5 -8
v 3.9 4.6 -8
v 3.9 4.8 -8
v 3.9 5.1 -8
v 3.9 5.2 -8
v 3.9 5.3 -8
v 3.9 5.7 -8
v 3.9 5.8 -8
v 3.9 6.4 -8
v 4 4.4 -8
v 4 4.5 -8
v 4 4.6 -8
v 4 5.2 -8
v 4 5.3 -8
v 4 5.5 -8
v 4 5.6 -8
v 4 5.7 -8
v 4 5.8 -8
v 4.1 4.5 -8
v 4.1 5.3 -8
v 4.1 5.5 -8
v 4.1 5.6 -8
v 4.1 5.7 -8
v 4.2 4.3 -8
v 4.2 5.6 -8
v 4.5 3.5 -8
v 4.5 7.2 -8
v 4.8 3.1 -8
v 4.8 7.6 -8
v 1.8 3.1 -7.8
v 4.8 3.1 -7.8
v 1.8 3.1 -8
v 4.8 3.1 -8
v 2.1 7.2 -7.8
v 4.5 7.2 -7.8
v 2.1 7.2 -7.9
v 4.5 7.2 -7.9
v 2.1 3.5 -7.8
v 4.5 3.5 -7.8
v 2.1 3.5 -7.9
v 4.5 3.5 -7.9
v 1.8 7.6 -7.8
v 4.8 7.6 -7.8
v 1.8 7.6 -8
v 4.8 7.6 -8

# faces
f 3/1/1 2/1/1 1/1/1
f 4/1/1 2/1/1 3/1/1
f 7/1/1 6/1/1 5/1/1
f 8/1/1 6/1/1 7/1/1
f 9/1/2 10/1/2 11/1/2
f 11/1/2 10/1/2 12/1/2
f 13/1/2 14/1/2 15/1/2
f 15/1/2 14/1/2 16/1/2
f 19/1/3 18/1/3 17/1/3
f 20/1/3 18/1/3 19/1/3
f 21/1/3 19/1/3 17/1/3
f 22/1/3 18/1/3 20/1/3
f 23/1/3 21/1/3 17/1/3
f 23/1/3 22/1/3 21/1/3
f 24/1/3 18/1/3 22/1/3
f 24/1/3 22/1/3 23/1/3
f 27/2/3 26/2/3 25/2/3
f 28/2/3 26/2/3 27/2/3
f 29/5/3 28/5/3 27/5/3
f 30/5/3 28/5/3 29/5/3
f 31/5/3 28/5/3 30/5/3
f 32/2/3 26/2/3 28/2/3
f 32/5/3 28/5/3 31/5/3
f 33/2/3 26/2/3 32/2/3
f 34/5/3 29/5/3 27/5/3
f 35/4/3 30/4/3 29/4/3
f 35/5/3 29/5/3 34/5/3
f 36/4/3 30/4/3 35/4/3
f 37/4/3 30/4/3 36/4/3
f 38/5/3 31/5/3 30/5/3
f 38/4/3 30/4/3 37/4/3
f 39/4/3 32/4/3 31/4/3
f 39/5/3 31/5/3 38/5/3
f 40/5/3 33/5/3 32/5/3
f 40/4/3 32/4/3 39/4/3
f 41/2/3 26/2/3 33/2/3
f 41/5/3 33/5/3 40/5/3
f 42/2/3 26/2/3 41/2/3
f 43/4/3 35/4/3 34/4/3
f 43/5/3 36/5/3 35/5/3
f 44/4/3 37/4/3 36/4/3
f 44/5/3 36/5/3 43/5/3
f 45/4/3 37/4/3 44/4/3
f 46/4/3 37/4/3 45/4/3
f 47/5/3 38/5/3 37/5/3
f 47/4/3 37/4/3 46/4/3
f 48/4/3 40/4/3 39/4/3
f 48/5/3 38/5/3 47/5/3
f 48/4/3 39/4/3 38/4/3
f 48/4/3 41/4/3 40/4/3
f 49/5/3 42/5/3 41/5/3
f 49/4/3 41/4/3 48/4/3
f 50/2/3 26/2/3 42/2/3
f 50/5/3 42/5/3 49/5/3
f 51/2/3 26/2/3 50/2/3
f 52/5/3 45/5/3 44/5/3
f 52/4/3 44/4/3 43/4/3
f 53/4/3 46/4/3 45/4/3
f 53/5/3 45/5/3 52/5/3
f 54/4/3 46/4/3 53/4/3
f 55/4/3 46/4/3 54/4/3
f 56/5/3 47/5/3 46/5/3
f 56/4/3 46/4/3 55/4/3
f 56/5/3 49/5/3 48/5/3
f 56/5/3 48/5/3 47/5/3
f 56/5/3 51/5/3 50/5/3
f 56/5/3 50/5/3 49/5/3
f 57/5/3 51/5/3 56/5/3
f 58/5/3 54/5/3 53/5/3
f 58/4/3 53/4/3 52/4/3
f 59/4/3 55/4/3 54/4/3
f 59/5/3 54/5/3 58/5/3
f 60/5/3 56/5/3 55/5/3
f 60/4/3 55/4/3 59/4/3
f 61/3/3 57/3/3 56/3/3
f 61/5/3 56/5/3 60/5/3
f 62/3/3 57/3/3 61/3/3
f 63/3/3 57/3/3 62/3/3
f 64/3/3 57/3/3 63/3/3
f 65/3/3 57/3/3 64/3/3
f 66/3/3 57/3/3 65/3/3
f 67/3/3 57/3/3 66/3/3
f 68/3/3 57/3/3 67/3/3
f 69/4/3 58/4/3 52/4/3
f 69/4/3 59/4/3 58/4/3
f 70/5/3 60/5/3 59/5/3
f 70/4/3 59/4/3 69/4/3
f 71/3/3 61/3/3 60/3/3
f 71/5/3 60/5/3 70/5/3
f 72/4/3 52/4/3 43/4/3
f 72/4/3 69/4/3 52/4/3
f 73/5/3 70/5/3 69/5/3
f 73/4/3 69/4/3 72/4/3
f 74/3/3 71/3/3 70/3/3
f 74/5/3 70/5/3 73/5/3
f 75/3/3 57/3/3 68/3/3
f 76/3/3 57/3/3 75/3/3
f 77/5/3 73/5/3 72/5/3
f 77/4/3 72/4/3 43/4/3
f 78/3/3 74/3/3 73/3/3
f 78/5/3 73/5/3 77/5/3
f 79/3/3 71/3/3 74/3/3
f 79/3/3 74/3/3 78/3/3
f 80/3/3 61/3/3 71/3/3
f 80/3/3 71/3/3 79/3/3
f 80/5/3 62/5/3 61/5/3
f 81/3/3 63/3/3 62/3/3
f 81/5/3 62/5/3 80/5/3
f 82/5/3 76/5/3 75/5/3
f 82/3/3 75/3/3 68/3/3
f 83/3/3 57/3/3 76/3/3
f 83/5/3 76/5/3 82/5/3
f 84/4/3 78/4/3 77/4/3
f 84/5/3 79/5/3 78/5/3
f 85/3/3 81/3/3 80/3/3
f 85/5/3 79/5/3 84/5/3
f 85/3/3 80/3/3 79/3/3
f 86/3/3 81/3/3 85/3/3
f 87/4/3 84/4/3 77/4/3
f 87/4/3 85/4/3 84/4/3
f 88/5/3 86/5/3 85/5/3
f 88/4/3 85/4/3 87/4/3
f 89/3/3 81/3/3 86/3/3
f 89/5/3 86/5/3 88/5/3
f 90/3/3 81/3/3 89/3/3
f 91/3/3 63/3/3 81/3/3
f 91/3/3 81/3/3 90/3/3
f 91/5/3 64/5/3 63/5/3
f 92/3/3 65/3/3 64/3/3
f 92/5/3 64/5/3 91/5/3
f 93/5/3 66/5/3 65/5/3
f 93/3/3 65/3/3 92/3/3
f 94/3/3 67/3/3 66/3/3
f 94/5/3 66/5/3 93/5/3
f 95/5/3 68/5/3 67/5/3
f 95/3/3 67/3/3 94/3/3
f 96/3/3 83/3/3 82/3/3
f 96/5/3 68/5/3 95/5/3
f 96/3/3 82/3/3 68/3/3
f 97/4/3 87/4/3 77/4/3
f 97/4/3 77/4/3 43/4/3
f 98/5/3 88/5/3 87/5/3
f 98/4/3 87/4/3 97/4/3
f 99/4/3 89/4/3 88/4/3
f 99/5/3 88/5/3 98/5/3
f 100/5/3 90/5/3 89/5/3
f 100/4/3 89/4/3 99/4/3
f 101/3/3 95/3/3 94/3/3
f 101/5/3 90/5/3 100/5/3
f 101/3/3 94/3/3 93/3/3
f 101/3/3 93/3/3 92/3/3
f 101/3/3 92/3/3 91/3/3
f 101/3/3 91/3/3 90/3/3
f 101/3/3 96/3/3 95/3/3
f 102/3/3 57/3/3 83/3/3
f 102/3/3 96/3/3 101/3/3
f 102/5/3 51/5/3 57/5/3
f 102/3/3 83/3/3 96/3/3
f 103/4/3 43/4/3 34/4/3
f 103/4/3 97/4/3 43/4/3
f 104/5/3 98/5/3 97/5/3
f 104/4/3 97/4/3 103/4/3
f 105/4/3 101/4/3 100/4/3
f 105/5/3 98/5/3 104/5/3
f 105/4/3 100/4/3 99/4/3
f 105/4/3 99/4/3 98/4/3
f 106/5/3 102/5/3 101/5/3
f 106/4/3 101/4/3 105/4/3
f 107/5/3 102/5/3 106/5/3
f 108/5/3 102/5/3 107/5/3
f 109/5/3 102/5/3 108/5/3
f 110/5/3 102/5/3 109/5/3
f 111/5/3 51/5/3 102/5/3
f 111/5/3 102/5/3 110/5/3
f 111/2/3 26/2/3 51/2/3
f 112/5/3 34/5/3 27/5/3
f 112/4/3 103/4/3 34/4/3
f 113/5/3 104/5/3 103/5/3
f 113/4/3 103/4/3 112/4/3
f 114/4/3 105/4/3 104/4/3
f 114/5/3 104/5/3 113/5/3
f 114/4/3 106/4/3 105/4/3
f 114/4/3 107/4/3 106/4/3
f 115/5/3 108/5/3 107/5/3
f 115/4/3 107/4/3 114/4/3
f 116/4/3 109/4/3 108/4/3
f 116/5/3 108/5/3 115/5/3
f 117/4/3 109/4/3 116/4/3
f 118/4/3 109/4/3 117/4/3
f 119/5/3 110/5/3 109/5/3
f 119/4/3 109/4/3 118/4/3
f 120/2/3 111/2/3 110/2/3
f 120/5/3 110/5/3 119/5/3
f 121/4/3 115/4/3 114/4/3
f 121/5/3 113/5/3 112/5/3
f 121/4/3 114/4/3 113/4/3
f 121/4/3 116/4/3 115/4/3
f 122/5/3 117/5/3 116/5/3
f 122/4/3 116/4/3 121/4/3
f 123/4/3 118/4/3 117/4/3
f 123/5/3 117/5/3 122/5/3
f 124/5/3 119/5/3 118/5/3
f 124/4/3 118/4/3 123/4/3
f 125/2/3 120/2/3 119/2/3
f 125/5/3 119/5/3 124/5/3
f 126/2/3 27/2/3 25/2/3
f 126/5/3 122/5/3 121/5/3
f 126/5/3 112/5/3 27/5/3
f 126/5/3 121/5/3 112/5/3
f 126/5/3 124/5/3 123/5/3
f 126/5/3 123/5/3 122/5/3
f 127/2/3 125/2/3 124/2/3
f 127/5/3 124/5/3 126/5/3
f 128/2/3 126/2/3 25/2/3
f 128/2/3 127/2/3 126/2/3
f 129/2/3 120/2/3 125/2/3
f 129/2/3 127/2/3 128/2/3
f 129/2/3 125/2/3 127/2/3
f 129/2/3 26/2/3 111/2/3
f 129/2/3 111/2/3 120/2/3
f 130/1/4 131/1/4 132/1/4
f 132/1/4 131/1/4 133/1/4
f 132/2/4 133/2/4 134/2/4
f 134/2/4 133/2/4 135/2/4
f 134/5/4 135/5/4 136/5/4
f 136/5/4 135/5/4 137/5/4
f 137/5/4 135/5/4 138/5/4
f 135/2/4 133/2/4 139/2/4
f 138/5/4 135/5/4 139/5/4
f 139/2/4 133/2/4 140/2/4
f 134/5/4 136/5/4 141/5/4
f 136/4/4 137/4/4 142/4/4
f 141/5/4 136/5/4 142/5/4
f 142/4/4 137/4/4 143/4/4
f 143/4/4 137/4/4 144/4/4
f 137/5/4 138/5/4 145/5/4
f 144/4/4 137/4/4 145/4/4
f 138/4/4 139/4/4 146/4/4
f 145/5/4 138/5/4 146/5/4
f 139/5/4 140/5/4 147/5/4
f 146/4/4 139/4/4 147/4/4
f 140/2/4 133/2/4 148/2/4
f 147/5/4 140/5/4 148/5/4
f 148/2/4 133/2/4 149/2/4
f 141/4/4 142/4/4 150/4/4
f 142/5/4 143/5/4 150/5/4
f 143/4/4 144/4/4 151/4/4
f 150/5/4 143/5/4 151/5/4
f 151/4/4 144/4/4 152/4/4
f 152/4/4 144/4/4 153/4/4
f 144/5/4 145/5/4 154/5/4
f 153/4/4 144/4/4 154/4/4
f 146/4/4 147/4/4 155/4/4
f 154/5/4 145/5/4 155/5/4
f 145/4/4 146/4/4 155/4/4
f 147/4/4 148/4/4 155/4/4
f 148/5/4 149/5/4 156/5/4
f 155/4/4 148/4/4 156/4/4
f 149/2/4 133/2/4 157/2/4
f 156/5/4 149/5/4 157/5/4
f 157/2/4 133/2/4 158/2/4
f 151/5/4 152/5/4 159/5/4
f 150/4/4 151/4/4 159/4/4
f 152/4/4 153/4/4 160/4/4
f 159/5/4 152/5/4 160/5/4
f 160/4/4 153/4/4 161/4/4
f 161/4/4 153/4/4 162/4/4
f 153/5/4 154/5/4 163/5/4
f 162/4/4 153/4/4 163/4/4
f 155/5/4 156/5/4 163/5/4
f 154/5/4 155/5/4 163/5/4
f 157/5/4 158/5/4 163/5/4
f 156/5/4 157/5/4 163/5/4
f 163/5/4 158/5/4 164/5/4
f 160/5/4 161/5/4 165/5/4
f 159/4/4 160/4/4 165/4/4
f 161/4/4 162/4/4 166/4/4
f 165/5/4 161/5/4 166/5/4
f 162/5/4 163/5/4 167/5/4
f 166/4/4 162/4/4 167/4/4
f 163/3/4 164/3/4 168/3/4
f 167/5/4 163/5/4 168/5/4
f 168/3/4 164/3/4 169/3/4
f 169/3/4 164/3/4 170/3/4
f 170/3/4 164/3/4 171/3/4
f 171/3/4 164/3/4 172/3/4
f 172/3/4 164/3/4 173/3/4
f 173/3/4 164/3/4 174/3/4
f 174/3/4 164/3/4 175/3/4
f 159/4/4 165/4/4 176/4/4
f 165/4/4 166/4/4 176/4/4
f 166/5/4 167/5/4 177/5/4
f 176/4/4 166/4/4 177/4/4
f 167/3/4 168/3/4 178/3/4
f 177/5/4 167/5/4 178/5/4
f 150/4/4 159/4/4 179/4/4
f 159/4/4 176/4/4 179/4/4
f 176/5/4 177/5/4 180/5/4
f 179/4/4 176/4/4 180/4/4
f 177/3/4 178/3/4 181/3/4
f 180/5/4 177/5/4 181/5/4
f 175/3/4 164/3/4 182/3/4
f 182/3/4 164/3/4 183/3/4
f 179/5/4 180/5/4 184/5/4
f 150/4/4 179/4/4 184/4/4
f 180/3/4 181/3/4 185/3/4
f 184/5/4 180/5/4 185/5/4
f 181/3/4 178/3/4 186/3/4
f 185/3/4 181/3/4 186/3/4
f 178/3/4 168/3/4 187/3/4
f 186/3/4 178/3/4 187/3/4
f 168/5/4 169/5/4 187/5/4
f 169/3/4 170/3/4 188/3/4
f 187/5/4 169/5/4 188/5/4
f 182/5/4 183/5/4 189/5/4
f 175/3/4 182/3/4 189/3/4
f 183/3/4 164/3/4 190/3/4
f 189/5/4 183/5/4 190/5/4
f 184/4/4 185/4/4 191/4/4
f 185/5/4 186/5/4 191/5/4
f 187/3/4 188/3/4 192/3/4
f 191/5/4 186/5/4 192/5/4
f 186/3/4 187/3/4 192/3/4
f 192/3/4 188/3/4 193/3/4
f 184/4/4 191/4/4 194/4/4
f 191/4/4 192/4/4 194/4/4
f 192/5/4 193/5/4 195/5/4
f 194/4/4 192/4/4 195/4/4
f 193/3/4 188/3/4 196/3/4
f 195/5/4 193/5/4 196/5/4
f 196/3/4 188/3/4 197/3/4
f 188/3/4 170/3/4 198/3/4
f 197/3/4 188/3/4 198/3/4
f 170/5/4 171/5/4 198/5/4
f 171/3/4 172/3/4 199/3/4
f 198/5/4 171/5/4 199/5/4
f 172/5/4 173/5/4 200/5/4
f 199/3/4 172/3/4 200/3/4
f 173/3/4 174/3/4 201/3/4
f 200/5/4 173/5/4 201/5/4
f 174/5/4 175/5/4 202/5/4
f 201/3/4 174/3/4 202/3/4
f 189/3/4 190/3/4 203/3/4
f 202/5/4 175/5/4 203/5/4
f 175/3/4 189/3/4 203/3/4
f 184/4/4 194/4/4 204/4/4
f 150/4/4 184/4/4 204/4/4
f 194/5/4 195/5/4 205/5/4
f 204/4/4 194/4/4 205/4/4
f 195/4/4 196/4/4 206/4/4
f 205/5/4 195/5/4 206/5/4
f 196/5/4 197/5/4 207/5/4
f 206/4/4 196/4/4 207/4/4
f 201/3/4 202/3/4 208/3/4
f 207/5/4 197/5/4 208/5/4
f 200/3/4 201/3/4 208/3/4
f 199/3/4 200/3/4 208/3/4
f 198/3/4 199/3/4 208/3/4
f 197/3/4 198/3/4 208/3/4
f 202/3/4 203/3/4 208/3/4
f 190/3/4 164/3/4 209/3/4
f 208/3/4 203/3/4 209/3/4
f 164/5/4 158/5/4 209/5/4
f 203/3/4 190/3/4 209/3/4
f 141/4/4 150/4/4 210/4/4
f 150/4/4 204/4/4 210/4/4
f 204/5/4 205/5/4 211/5/4
f 210/4/4 204/4/4 211/4/4
f 207/4/4 208/4/4 212/4/4
f 211/5/4 205/5/4 212/5/4
f 206/4/4 207/4/4 212/4/4
f 205/4/4 206/4/4 212/4/4
f 208/5/4 209/5/4 213/5/4
f 212/4/4 208/4/4 213/4/4
f 213/5/4 209/5/4 214/5/4
f 214/5/4 209/5/4 215/5/4
f 215/5/4 209/5/4 216/5/4
f 216/5/4 209/5/4 217/5/4
f 209/5/4 158/5/4 218/5/4
f 217/5/4 209/5/4 218/5/4
f 158/2/4 133/2/4 218/2/4
f 134/5/4 141/5/4 219/5/4
f 141/4/4 210/4/4 219/4/4
f 210/5/4 211/5/4 220/5/4
f 219/4/4 210/4/4 220/4/4
f 211/4/4 212/4/4 221/4/4
f 220/5/4 211/5/4 221/5/4
f 212/4/4 213/4/4 221/4/4
f 213/4/4 214/4/4 221/4/4
f 214/5/4 215/5/4 222/5/4
f 221/4/4 214/4/4 222/4/4
f 215/4/4 216/4/4 223/4/4
f 222/5/4 215/5/4 223/5/4
f 223/4/4 216/4/4 224/4/4
f 224/4/4 216/4/4 225/4/4
f 216/5/4 217/5/4 226/5/4
f 225/4/4 216/4/4 226/4/4
f 217/2/4 218/2/4 227/2/4
f 226/5/4 217/5/4 227/5/4
f 221/4/4 222/4/4 228/4/4
f 219/5/4 220/5/4 228/5/4
f 220/4/4 221/4/4 228/4/4
f 222/4/4 223/4/4 228/4/4
f 223/5/4 224/5/4 229/5/4
f 228/4/4 223/4/4 229/4/4
f 224/4/4 225/4/4 230/4/4
f 229/5/4 224/5/4 230/5/4
f 225/5/4 226/5/4 231/5/4
f 230/4/4 225/4/4 231/4/4
f 226/2/4 227/2/4 232/2/4
f 231/5/4 226/5/4 232/5/4
f 132/2/4 134/2/4 233/2/4
f 228/5/4 229/5/4 233/5/4
f 134/5/4 219/5/4 233/5/4
f 219/5/4 228/5/4 233/5/4
f 230/5/4 231/5/4 233/5/4
f 229/5/4 230/5/4 233/5/4
f 231/2/4 232/2/4 234/2/4
f 233/5/4 231/5/4 234/5/4
f 130/1/4 132/1/4 235/1/4
f 132/2/4 233/2/4 235/2/4
f 233/2/4 234/2/4 235/2/4
f 234/2/4 232/2/4 236/2/4
f 235/2/4 234/2/4 236/2/4
f 133/1/4 131/1/4 236/1/4
f 227/2/4 218/2/4 236/2/4
f 218/2/4 133/2/4 236/2/4
f 232/2/4 227/2/4 236/2/4
f 130/1/4 235/1/4 237/1/4
f 235/1/4 236/1/4 237/1/4
f 236/1/4 131/1/4 238/1/4
f 237/1/4 236/1/4 238/1/4
f 241/1/5 240/1/5 239/1/5
f 242/1/5 240/1/5 241/1/5
f 245/1/5 244/1/5 243/1/5
f 246/1/5 244/1/5 245/1/5
f 247/1/6 248/1/6 249/1/6
f 249/1/6 248/1/6 250/1/6
f 251/1/6 252/1/6 253/1/6
f 253/1/6 252/1/6 254/1/6
