# MagicaVoxel @ Ephtracy

# group
o 

# material
mtllib website8.vox.mtl
usemtl palette

# normals
vn -1 0 0
vn 1 0 0
vn 0 0 1
vn 0 0 -1
vn 0 -1 0
vn 0 1 0

# texcoords
vt 0.232422 0.5
vt 0.255859 0.5
vt 0.373047 0.5
vt 0.873047 0.5
vt 0.994141 0.5

# verts
v 5 3.1 -7.8
v 5 3.1 -8
v 5 7.6 -7.8
v 5 7.6 -8
v 7.7 3.5 -7.8
v 7.7 3.5 -7.9
v 7.7 7.2 -7.8
v 7.7 7.2 -7.9
v 5.3 3.5 -7.8
v 5.3 3.5 -7.9
v 5.3 7.2 -7.8
v 5.3 7.2 -7.9
v 8 3.1 -7.8
v 8 3.1 -8
v 8 7.6 -7.8
v 8 7.6 -8
v 5 3.1 -7.8
v 5 7.6 -7.8
v 5.3 3.5 -7.8
v 5.3 7.2 -7.8
v 7.7 3.5 -7.8
v 7.7 7.2 -7.8
v 8 3.1 -7.8
v 8 7.6 -7.8
v 5.3 3.5 -7.9
v 5.3 7.2 -7.9
v 5.6 4.5 -7.9
v 5.6 4.8 -7.9
v 5.6 5.9 -7.9
v 5.6 6.2 -7.9
v 5.7 4.4 -7.9
v 5.7 4.5 -7.9
v 5.7 4.7 -7.9
v 5.7 5.6 -7.9
v 5.7 5.9 -7.9
v 5.7 6.2 -7.9
v 5.7 6.3 -7.9
v 5.8 4.3 -7.9
v 5.8 4.4 -7.9
v 5.8 4.5 -7.9
v 5.8 5.3 -7.9
v 5.8 5.6 -7.9
v 5.8 5.9 -7.9
v 5.8 6 -7.9
v 5.8 6.1 -7.9
v 5.8 6.2 -7.9
v 5.8 6.3 -7.9
v 5.8 6.4 -7.9
v 5.9 5 -7.9
v 5.9 5.3 -7.9
v 5.9 5.6 -7.9
v 5.9 5.7 -7.9
v 5.9 5.8 -7.9
v 5.9 6.2 -7.9
v 5.9 6.3 -7.9
v 6 4.4 -7.9
v 6 4.5 -7.9
v 6 4.8 -7.9
v 6 5 -7.9
v 6 5.3 -7.9
v 6 5.4 -7.9
v 6 5.5 -7.9
v 6 6.1 -7.9
v 6 6.2 -7.9
v 6 6.3 -7.9
v 6.1 4.4 -7.9
v 6.1 4.5 -7.9
v 6.1 4.7 -7.9
v 6.1 5 -7.9
v 6.1 5.1 -7.9
v 6.1 5.2 -7.9
v 6.1 6.1 -7.9
v 6.1 6.2 -7.9
v 6.2 4.5 -7.9
v 6.2 4.7 -7.9
v 6.2 4.8 -7.9
v 6.2 4.9 -7.9
v 6.3 4.5 -7.9
v 6.3 4.6 -7.9
v 6.4 4.7 -7.9
v 6.4 4.8 -7.9
v 6.5 4.9 -7.9
v 6.5 5.1 -7.9
v 6.6 4.7 -7.9
v 6.6 4.8 -7.9
v 6.6 4.9 -7.9
v 6.6 5 -7.9
v 6.6 5.2 -7.9
v 6.6 5.3 -7.9
v 6.7 4.9 -7.9
v 6.7 5 -7.9
v 6.7 5.1 -7.9
v 6.7 5.2 -7.9
v 6.7 5.3 -7.9
v 6.7 5.4 -7.9
v 6.7 5.7 -7.9
v 6.7 5.8 -7.9
v 6.7 5.9 -7.9
v 6.7 6 -7.9
v 6.8 5.1 -7.9
v 6.8 5.2 -7.9
v 6.8 5.3 -7.9
v 6.8 5.4 -7.9
v 6.8 5.6 -7.9
v 6.8 5.9 -7.9
v 6.8 6 -7.9
v 6.9 4.9 -7.9
v 6.9 5 -7.9
v 6.9 5.1 -7.9
v 6.9 5.2 -7.9
v 6.9 5.3 -7.9
v 6.9 5.4 -7.9
v 6.9 5.5 -7.9
v 6.9 5.6 -7.9
v 6.9 5.7 -7.9
v 6.9 5.9 -7.9
v 7 4.8 -7.9
v 7 4.9 -7.9
v 7 5.1 -7.9
v 7 5.2 -7.9
v 7 5.3 -7.9
v 7 5.4 -7.9
v 7 5.5 -7.9
v 7 5.6 -7.9
v 7 6.2 -7.9
v 7 6.3 -7.9
v 7 6.4 -7.9
v 7.1 4.3 -7.9
v 7.1 4.4 -7.9
v 7.1 4.5 -7.9
v 7.1 4.6 -7.9
v 7.1 4.7 -7.9
v 7.1 5 -7.9
v 7.1 5.2 -7.9
v 7.1 5.4 -7.9
v 7.1 5.5 -7.9
v 7.1 5.6 -7.9
v 7.1 5.7 -7.9
v 7.1 5.8 -7.9
v 7.1 6.1 -7.9
v 7.1 6.2 -7.9
v 7.1 6.3 -7.9
v 7.2 4.4 -7.9
v 7.2 4.5 -7.9
v 7.2 4.7 -7.9
v 7.2 5 -7.9
v 7.2 5.2 -7.9
v 7.2 5.4 -7.9
v 7.2 5.5 -7.9
v 7.2 5.6 -7.9
v 7.2 5.7 -7.9
v 7.2 5.8 -7.9
v 7.2 5.9 -7.9
v 7.2 6 -7.9
v 7.2 6.2 -7.9
v 7.3 4.5 -7.9
v 7.3 4.7 -7.9
v 7.3 5.4 -7.9
v 7.3 5.6 -7.9
v 7.3 5.8 -7.9
v 7.4 5.6 -7.9
v 7.4 5.9 -7.9
v 7.7 3.5 -7.9
v 7.7 7.2 -7.9
v 5 3.1 -8
v 5 7.6 -8
v 5.3 3.5 -8
v 5.3 7.2 -8
v 5.6 4.5 -8
v 5.6 4.8 -8
v 5.6 5.9 -8
v 5.6 6.2 -8
v 5.7 4.4 -8
v 5.7 4.5 -8
v 5.7 4.7 -8
v 5.7 5.6 -8
v 5.7 5.9 -8
v 5.7 6.2 -8
v 5.7 6.3 -8
v 5.8 4.3 -8
v 5.8 4.4 -8
v 5.8 4.5 -8
v 5.8 5.3 -8
v 5.8 5.6 -8
v 5.8 5.9 -8
v 5.8 6 -8
v 5.8 6.1 -8
v 5.8 6.2 -8
v 5.8 6.3 -8
v 5.8 6.4 -8
v 5.9 5 -8
v 5.9 5.3 -8
v 5.9 5.6 -8
v 5.9 5.7 -8
v 5.9 5.8 -8
v 5.9 6.2 -8
v 5.9 6.3 -8
v 6 4.4 -8
v 6 4.5 -8
v 6 4.8 -8
v 6 5 -8
v 6 5.3 -8
v 6 5.4 -8
v 6 5.5 -8
v 6 6.1 -8
v 6 6.2 -8
v 6 6.3 -8
v 6.1 4.4 -8
v 6.1 4.5 -8
v 6.1 4.7 -8
v 6.1 5 -8
v 6.1 5.1 -8
v 6.1 5.2 -8
v 6.1 6.1 -8
v 6.1 6.2 -8
v 6.2 4.5 -8
v 6.2 4.7 -8
v 6.2 4.8 -8
v 6.2 4.9 -8
v 6.3 4.5 -8
v 6.3 4.6 -8
v 6.4 4.7 -8
v 6.4 4.8 -8
v 6.5 4.9 -8
v 6.5 5.1 -8
v 6.6 4.7 -8
v 6.6 4.8 -8
v 6.6 4.9 -8
v 6.6 5 -8
v 6.6 5.2 -8
v 6.6 5.3 -8
v 6.7 4.9 -8
v 6.7 5 -8
v 6.7 5.1 -8
v 6.7 5.2 -8
v 6.7 5.3 -8
v 6.7 5.4 -8
v 6.7 5.7 -8
v 6.7 5.8 -8
v 6.7 5.9 -8
v 6.7 6 -8
v 6.8 5.1 -8
v 6.8 5.2 -8
v 6.8 5.3 -8
v 6.8 5.4 -8
v 6.8 5.6 -8
v 6.8 5.9 -8
v 6.8 6 -8
v 6.9 4.9 -8
v 6.9 5 -8
v 6.9 5.1 -8
v 6.9 5.2 -8
v 6.9 5.3 -8
v 6.9 5.4 -8
v 6.9 5.5 -8
v 6.9 5.6 -8
v 6.9 5.7 -8
v 6.9 5.9 -8
v 7 4.8 -8
v 7 4.9 -8
v 7 5.1 -8
v 7 5.2 -8
v 7 5.3 -8
v 7 5.4 -8
v 7 5.5 -8
v 7 5.6 -8
v 7 6.2 -8
v 7 6.3 -8
v 7 6.4 -8
v 7.1 4.3 -8
v 7.1 4.4 -8
v 7.1 4.5 -8
v 7.1 4.6 -8
v 7.1 4.7 -8
v 7.1 5 -8
v 7.1 5.2 -8
v 7.1 5.4 -8
v 7.1 5.5 -8
v 7.1 5.6 -8
v 7.1 5.7 -8
v 7.1 5.8 -8
v 7.1 6.1 -8
v 7.1 6.2 -8
v 7.1 6.3 -8
v 7.2 4.4 -8
v 7.2 4.5 -8
v 7.2 4.7 -8
v 7.2 5 -8
v 7.2 5.2 -8
v 7.2 5.4 -8
v 7.2 5.5 -8
v 7.2 5.6 -8
v 7.2 5.7 -8
v 7.2 5.8 -8
v 7.2 5.9 -8
v 7.2 6 -8
v 7.2 6.2 -8
v 7.3 4.5 -8
v 7.3 4.7 -8
v 7.3 5.4 -8
v 7.3 5.6 -8
v 7.3 5.8 -8
v 7.4 5.6 -8
v 7.4 5.9 -8
v 7.7 3.5 -8
v 7.7 7.2 -8
v 8 3.1 -8
v 8 7.6 -8
v 5 3.1 -7.8
v 8 3.1 -7.8
v 5 3.1 -8
v 8 3.1 -8
v 5.3 7.2 -7.8
v 7.7 7.2 -7.8
v 5.3 7.2 -7.9
v 7.7 7.2 -7.9
v 5.3 3.5 -7.8
v 7.7 3.5 -7.8
v 5.3 3.5 -7.9
v 7.7 3.5 -7.9
v 5 7.6 -7.8
v 8 7.6 -7.8
v 5 7.6 -8
v 8 7.6 -8

# faces
f 3/3/1 2/3/1 1/3/1
f 4/3/1 2/3/1 3/3/1
f 7/3/1 6/3/1 5/3/1
f 8/3/1 6/3/1 7/3/1
f 9/3/2 10/3/2 11/3/2
f 11/3/2 10/3/2 12/3/2
f 13/3/2 14/3/2 15/3/2
f 15/3/2 14/3/2 16/3/2
f 19/3/3 18/3/3 17/3/3
f 20/3/3 18/3/3 19/3/3
f 21/3/3 19/3/3 17/3/3
f 22/3/3 18/3/3 20/3/3
f 23/3/3 21/3/3 17/3/3
f 23/3/3 22/3/3 21/3/3
f 24/3/3 18/3/3 22/3/3
f 24/3/3 22/3/3 23/3/3
f 27/4/3 26/4/3 25/4/3
f 28/4/3 26/4/3 27/4/3
f 29/4/3 26/4/3 28/4/3
f 30/4/3 26/4/3 29/4/3
f 31/4/3 27/4/3 25/4/3
f 32/5/3 28/5/3 27/5/3
f 32/4/3 27/4/3 31/4/3
f 33/5/3 28/5/3 32/5/3
f 34/4/3 29/4/3 28/4/3
f 35/5/3 30/5/3 29/5/3
f 35/4/3 29/4/3 34/4/3
f 36/4/3 26/4/3 30/4/3
f 36/5/3 30/5/3 35/5/3
f 37/4/3 26/4/3 36/4/3
f 38/4/3 31/4/3 25/4/3
f 39/5/3 32/5/3 31/5/3
f 39/4/3 31/4/3 38/4/3
f 40/3/3 33/3/3 32/3/3
f 40/5/3 32/5/3 39/5/3
f 41/4/3 34/4/3 28/4/3
f 42/5/3 35/5/3 34/5/3
f 42/4/3 34/4/3 41/4/3
f 43/3/3 36/3/3 35/3/3
f 43/5/3 35/5/3 42/5/3
f 44/3/3 36/3/3 43/3/3
f 45/3/3 36/3/3 44/3/3
f 46/5/3 37/5/3 36/5/3
f 46/3/3 36/3/3 45/3/3
f 47/4/3 26/4/3 37/4/3
f 47/5/3 37/5/3 46/5/3
f 48/4/3 26/4/3 47/4/3
f 49/4/3 41/4/3 28/4/3
f 50/5/3 42/5/3 41/5/3
f 50/4/3 41/4/3 49/4/3
f 51/3/3 43/3/3 42/3/3
f 51/5/3 42/5/3 50/5/3
f 51/3/3 44/3/3 43/3/3
f 52/3/3 44/3/3 51/3/3
f 53/3/3 44/3/3 52/3/3
f 54/3/3 46/3/3 45/3/3
f 54/3/3 47/3/3 46/3/3
f 55/5/3 48/5/3 47/5/3
f 55/3/3 47/3/3 54/3/3
f 56/5/3 39/5/3 38/5/3
f 56/3/3 40/3/3 39/3/3
f 57/3/3 33/3/3 40/3/3
f 57/3/3 40/3/3 56/3/3
f 58/5/3 28/5/3 33/5/3
f 58/4/3 49/4/3 28/4/3
f 59/5/3 50/5/3 49/5/3
f 59/4/3 49/4/3 58/4/3
f 60/3/3 51/3/3 50/3/3
f 60/5/3 50/5/3 59/5/3
f 60/3/3 52/3/3 51/3/3
f 61/3/3 52/3/3 60/3/3
f 62/3/3 52/3/3 61/3/3
f 63/5/3 45/5/3 44/5/3
f 63/3/3 54/3/3 45/3/3
f 64/5/3 55/5/3 54/5/3
f 64/3/3 54/3/3 63/3/3
f 65/5/3 48/5/3 55/5/3
f 65/5/3 55/5/3 64/5/3
f 66/5/3 56/5/3 38/5/3
f 66/5/3 57/5/3 56/5/3
f 67/3/3 33/3/3 57/3/3
f 67/5/3 57/5/3 66/5/3
f 68/5/3 58/5/3 33/5/3
f 68/3/3 33/3/3 67/3/3
f 68/5/3 59/5/3 58/5/3
f 69/3/3 61/3/3 60/3/3
f 69/5/3 59/5/3 68/5/3
f 69/3/3 60/3/3 59/3/3
f 70/3/3 61/3/3 69/3/3
f 71/3/3 61/3/3 70/3/3
f 72/5/3 64/5/3 63/5/3
f 72/5/3 63/5/3 44/5/3
f 73/3/3 65/3/3 64/3/3
f 73/5/3 64/5/3 72/5/3
f 74/3/3 67/3/3 66/3/3
f 74/5/3 68/5/3 67/5/3
f 75/3/3 69/3/3 68/3/3
f 75/5/3 68/5/3 74/5/3
f 75/3/3 70/3/3 69/3/3
f 76/3/3 70/3/3 75/3/3
f 77/3/3 70/3/3 76/3/3
f 78/3/3 74/3/3 66/3/3
f 78/3/3 75/3/3 74/3/3
f 78/3/3 76/3/3 75/3/3
f 79/3/3 76/3/3 78/3/3
f 80/3/3 76/3/3 79/3/3
f 81/5/3 77/5/3 76/5/3
f 81/3/3 76/3/3 80/3/3
f 82/3/3 70/3/3 77/3/3
f 82/5/3 77/5/3 81/5/3
f 82/5/3 81/5/3 80/5/3
f 83/5/3 71/5/3 70/5/3
f 83/3/3 70/3/3 82/3/3
f 84/5/3 82/5/3 80/5/3
f 84/3/3 80/3/3 79/3/3
f 84/5/3 83/5/3 82/5/3
f 85/5/3 83/5/3 84/5/3
f 86/5/3 83/5/3 85/5/3
f 87/5/3 83/5/3 86/5/3
f 88/3/3 61/3/3 71/3/3
f 88/5/3 83/5/3 87/5/3
f 88/5/3 71/5/3 83/5/3
f 89/3/3 61/3/3 88/3/3
f 90/1/3 87/1/3 86/1/3
f 90/5/3 86/5/3 85/5/3
f 91/2/3 88/2/3 87/2/3
f 91/1/3 87/1/3 90/1/3
f 92/2/3 88/2/3 91/2/3
f 93/5/3 89/5/3 88/5/3
f 93/2/3 88/2/3 92/2/3
f 94/3/3 61/3/3 89/3/3
f 94/5/3 89/5/3 93/5/3
f 95/5/3 62/5/3 61/5/3
f 95/3/3 61/3/3 94/3/3
f 96/3/3 52/3/3 62/3/3
f 96/5/3 53/5/3 52/5/3
f 97/3/3 44/3/3 53/3/3
f 97/5/3 53/5/3 96/5/3
f 98/3/3 44/3/3 97/3/3
f 99/5/3 72/5/3 44/5/3
f 99/3/3 44/3/3 98/3/3
f 100/2/3 93/2/3 92/2/3
f 100/1/3 92/1/3 91/1/3
f 100/2/3 94/2/3 93/2/3
f 101/2/3 94/2/3 100/2/3
f 102/5/3 95/5/3 94/5/3
f 102/2/3 94/2/3 101/2/3
f 103/5/3 62/5/3 95/5/3
f 103/5/3 95/5/3 102/5/3
f 104/3/3 96/3/3 62/3/3
f 104/3/3 98/3/3 97/3/3
f 104/3/3 97/3/3 96/3/3
f 105/5/3 99/5/3 98/5/3
f 105/3/3 98/3/3 104/3/3
f 106/5/3 72/5/3 99/5/3
f 106/5/3 99/5/3 105/5/3
f 107/5/3 90/5/3 85/5/3
f 107/5/3 91/5/3 90/5/3
f 108/1/3 100/1/3 91/1/3
f 108/5/3 91/5/3 107/5/3
f 108/1/3 101/1/3 100/1/3
f 109/1/3 101/1/3 108/1/3
f 110/2/3 103/2/3 102/2/3
f 110/1/3 101/1/3 109/1/3
f 110/2/3 102/2/3 101/2/3
f 111/2/3 103/2/3 110/2/3
f 112/5/3 62/5/3 103/5/3
f 112/2/3 103/2/3 111/2/3
f 113/3/3 104/3/3 62/3/3
f 113/5/3 62/5/3 112/5/3
f 114/5/3 105/5/3 104/5/3
f 114/3/3 104/3/3 113/3/3
f 115/5/3 105/5/3 114/5/3
f 116/4/3 106/4/3 105/4/3
f 116/5/3 105/5/3 115/5/3
f 117/5/3 107/5/3 85/5/3
f 117/3/3 85/3/3 84/3/3
f 118/3/3 108/3/3 107/3/3
f 118/5/3 107/5/3 117/5/3
f 119/1/3 111/1/3 110/1/3
f 119/5/3 109/5/3 108/5/3
f 119/1/3 110/1/3 109/1/3
f 120/1/3 111/1/3 119/1/3
f 121/2/3 113/2/3 112/2/3
f 121/1/3 111/1/3 120/1/3
f 121/2/3 112/2/3 111/2/3
f 122/2/3 113/2/3 121/2/3
f 123/5/3 115/5/3 114/5/3
f 123/2/3 113/2/3 122/2/3
f 123/5/3 114/5/3 113/5/3
f 124/5/3 115/5/3 123/5/3
f 125/3/3 65/3/3 73/3/3
f 125/3/3 73/3/3 72/3/3
f 126/5/3 48/5/3 65/5/3
f 126/3/3 65/3/3 125/3/3
f 127/4/3 26/4/3 48/4/3
f 127/5/3 48/5/3 126/5/3
f 128/5/3 66/5/3 38/5/3
f 128/4/3 38/4/3 25/4/3
f 129/3/3 78/3/3 66/3/3
f 129/5/3 66/5/3 128/5/3
f 130/5/3 79/5/3 78/5/3
f 130/3/3 78/3/3 129/3/3
f 131/3/3 118/3/3 117/3/3
f 131/5/3 79/5/3 130/5/3
f 131/3/3 117/3/3 84/3/3
f 131/3/3 84/3/3 79/3/3
f 132/3/3 118/3/3 131/3/3
f 133/3/3 108/3/3 118/3/3
f 133/3/3 118/3/3 132/3/3
f 133/5/3 120/5/3 119/5/3
f 133/5/3 119/5/3 108/5/3
f 134/1/3 122/1/3 121/1/3
f 134/5/3 120/5/3 133/5/3
f 134/1/3 121/1/3 120/1/3
f 135/2/3 123/2/3 122/2/3
f 135/1/3 122/1/3 134/1/3
f 135/2/3 124/2/3 123/2/3
f 136/2/3 124/2/3 135/2/3
f 137/5/3 115/5/3 124/5/3
f 137/2/3 124/2/3 136/2/3
f 138/4/3 116/4/3 115/4/3
f 138/5/3 115/5/3 137/5/3
f 139/4/3 116/4/3 138/4/3
f 140/3/3 125/3/3 72/3/3
f 140/5/3 72/5/3 106/5/3
f 141/5/3 126/5/3 125/5/3
f 141/3/3 125/3/3 140/3/3
f 142/4/3 127/4/3 126/4/3
f 142/5/3 126/5/3 141/5/3
f 143/5/3 130/5/3 129/5/3
f 143/4/3 129/4/3 128/4/3
f 144/3/3 132/3/3 131/3/3
f 144/5/3 130/5/3 143/5/3
f 144/3/3 131/3/3 130/3/3
f 145/5/3 133/5/3 132/5/3
f 145/3/3 132/3/3 144/3/3
f 146/4/3 134/4/3 133/4/3
f 146/5/3 133/5/3 145/5/3
f 147/5/3 135/5/3 134/5/3
f 147/4/3 134/4/3 146/4/3
f 148/1/3 136/1/3 135/1/3
f 148/5/3 135/5/3 147/5/3
f 149/2/3 138/2/3 137/2/3
f 149/1/3 136/1/3 148/1/3
f 149/2/3 137/2/3 136/2/3
f 150/2/3 138/2/3 149/2/3
f 151/5/3 139/5/3 138/5/3
f 151/2/3 138/2/3 150/2/3
f 152/4/3 116/4/3 139/4/3
f 152/5/3 139/5/3 151/5/3
f 153/4/3 106/4/3 116/4/3
f 153/4/3 116/4/3 152/4/3
f 154/5/3 140/5/3 106/5/3
f 154/4/3 106/4/3 153/4/3
f 154/5/3 141/5/3 140/5/3
f 155/4/3 142/4/3 141/4/3
f 155/5/3 141/5/3 154/5/3
f 156/5/3 145/5/3 144/5/3
f 156/4/3 144/4/3 143/4/3
f 157/4/3 148/4/3 147/4/3
f 157/5/3 145/5/3 156/5/3
f 157/4/3 147/4/3 146/4/3
f 157/4/3 146/4/3 145/4/3
f 158/5/3 149/5/3 148/5/3
f 158/4/3 148/4/3 157/4/3
f 158/5/3 150/5/3 149/5/3
f 159/2/3 151/2/3 150/2/3
f 159/5/3 150/5/3 158/5/3
f 159/2/3 152/2/3 151/2/3
f 160/5/3 153/5/3 152/5/3
f 160/2/3 152/2/3 159/2/3
f 161/4/3 159/4/3 158/4/3
f 161/4/3 158/4/3 157/4/3
f 161/5/3 160/5/3 159/5/3
f 161/4/3 157/4/3 156/4/3
f 162/5/3 153/5/3 160/5/3
f 162/5/3 160/5/3 161/5/3
f 162/4/3 155/4/3 154/4/3
f 162/4/3 154/4/3 153/4/3
f 163/4/3 161/4/3 156/4/3
f 163/4/3 143/4/3 128/4/3
f 163/4/3 162/4/3 161/4/3
f 163/4/3 128/4/3 25/4/3
f 163/4/3 156/4/3 143/4/3
f 164/4/3 155/4/3 162/4/3
f 164/4/3 162/4/3 163/4/3
f 164/4/3 127/4/3 142/4/3
f 164/4/3 142/4/3 155/4/3
f 164/4/3 26/4/3 127/4/3
f 165/3/4 166/3/4 167/3/4
f 167/3/4 166/3/4 168/3/4
f 167/4/4 168/4/4 169/4/4
f 169/4/4 168/4/4 170/4/4
f 170/4/4 168/4/4 171/4/4
f 171/4/4 168/4/4 172/4/4
f 167/4/4 169/4/4 173/4/4
f 169/5/4 170/5/4 174/5/4
f 173/4/4 169/4/4 174/4/4
f 174/5/4 170/5/4 175/5/4
f 170/4/4 171/4/4 176/4/4
f 171/5/4 172/5/4 177/5/4
f 176/4/4 171/4/4 177/4/4
f 172/4/4 168/4/4 178/4/4
f 177/5/4 172/5/4 178/5/4
f 178/4/4 168/4/4 179/4/4
f 167/4/4 173/4/4 180/4/4
f 173/5/4 174/5/4 181/5/4
f 180/4/4 173/4/4 181/4/4
f 174/3/4 175/3/4 182/3/4
f 181/5/4 174/5/4 182/5/4
f 170/4/4 176/4/4 183/4/4
f 176/5/4 177/5/4 184/5/4
f 183/4/4 176/4/4 184/4/4
f 177/3/4 178/3/4 185/3/4
f 184/5/4 177/5/4 185/5/4
f 185/3/4 178/3/4 186/3/4
f 186/3/4 178/3/4 187/3/4
f 178/5/4 179/5/4 188/5/4
f 187/3/4 178/3/4 188/3/4
f 179/4/4 168/4/4 189/4/4
f 188/5/4 179/5/4 189/5/4
f 189/4/4 168/4/4 190/4/4
f 170/4/4 183/4/4 191/4/4
f 183/5/4 184/5/4 192/5/4
f 191/4/4 183/4/4 192/4/4
f 184/3/4 185/3/4 193/3/4
f 192/5/4 184/5/4 193/5/4
f 185/3/4 186/3/4 193/3/4
f 193/3/4 186/3/4 194/3/4
f 194/3/4 186/3/4 195/3/4
f 187/3/4 188/3/4 196/3/4
f 188/3/4 189/3/4 196/3/4
f 189/5/4 190/5/4 197/5/4
f 196/3/4 189/3/4 197/3/4
f 180/5/4 181/5/4 198/5/4
f 181/3/4 182/3/4 198/3/4
f 182/3/4 175/3/4 199/3/4
f 198/3/4 182/3/4 199/3/4
f 175/5/4 170/5/4 200/5/4
f 170/4/4 191/4/4 200/4/4
f 191/5/4 192/5/4 201/5/4
f 200/4/4 191/4/4 201/4/4
f 192/3/4 193/3/4 202/3/4
f 201/5/4 192/5/4 202/5/4
f 193/3/4 194/3/4 202/3/4
f 202/3/4 194/3/4 203/3/4
f 203/3/4 194/3/4 204/3/4
f 186/5/4 187/5/4 205/5/4
f 187/3/4 196/3/4 205/3/4
f 196/5/4 197/5/4 206/5/4
f 205/3/4 196/3/4 206/3/4
f 197/5/4 190/5/4 207/5/4
f 206/5/4 197/5/4 207/5/4
f 180/5/4 198/5/4 208/5/4
f 198/5/4 199/5/4 208/5/4
f 199/3/4 175/3/4 209/3/4
f 208/5/4 199/5/4 209/5/4
f 175/5/4 200/5/4 210/5/4
f 209/3/4 175/3/4 210/3/4
f 200/5/4 201/5/4 210/5/4
f 202/3/4 203/3/4 211/3/4
f 210/5/4 201/5/4 211/5/4
f 201/3/4 202/3/4 211/3/4
f 211/3/4 203/3/4 212/3/4
f 212/3/4 203/3/4 213/3/4
f 205/5/4 206/5/4 214/5/4
f 186/5/4 205/5/4 214/5/4
f 206/3/4 207/3/4 215/3/4
f 214/5/4 206/5/4 215/5/4
f 208/3/4 209/3/4 216/3/4
f 209/5/4 210/5/4 216/5/4
f 210/3/4 211/3/4 217/3/4
f 216/5/4 210/5/4 217/5/4
f 211/3/4 212/3/4 217/3/4
f 217/3/4 212/3/4 218/3/4
f 218/3/4 212/3/4 219/3/4
f 208/3/4 216/3/4 220/3/4
f 216/3/4 217/3/4 220/3/4
f 217/3/4 218/3/4 220/3/4
f 220/3/4 218/3/4 221/3/4
f 221/3/4 218/3/4 222/3/4
f 218/5/4 219/5/4 223/5/4
f 222/3/4 218/3/4 223/3/4
f 219/3/4 212/3/4 224/3/4
f 223/5/4 219/5/4 224/5/4
f 222/5/4 223/5/4 224/5/4
f 212/5/4 213/5/4 225/5/4
f 224/3/4 212/3/4 225/3/4
f 222/5/4 224/5/4 226/5/4
f 221/3/4 222/3/4 226/3/4
f 224/5/4 225/5/4 226/5/4
f 226/5/4 225/5/4 227/5/4
f 227/5/4 225/5/4 228/5/4
f 228/5/4 225/5/4 229/5/4
f 213/3/4 203/3/4 230/3/4
f 229/5/4 225/5/4 230/5/4
f 225/5/4 213/5/4 230/5/4
f 230/3/4 203/3/4 231/3/4
f 228/1/4 229/1/4 232/1/4
f 227/5/4 228/5/4 232/5/4
f 229/2/4 230/2/4 233/2/4
f 232/1/4 229/1/4 233/1/4
f 233/2/4 230/2/4 234/2/4
f 230/5/4 231/5/4 235/5/4
f 234/2/4 230/2/4 235/2/4
f 231/3/4 203/3/4 236/3/4
f 235/5/4 231/5/4 236/5/4
f 203/5/4 204/5/4 237/5/4
f 236/3/4 203/3/4 237/3/4
f 204/3/4 194/3/4 238/3/4
f 194/5/4 195/5/4 238/5/4
f 195/3/4 186/3/4 239/3/4
f 238/5/4 195/5/4 239/5/4
f 239/3/4 186/3/4 240/3/4
f 186/5/4 214/5/4 241/5/4
f 240/3/4 186/3/4 241/3/4
f 234/2/4 235/2/4 242/2/4
f 233/1/4 234/1/4 242/1/4
f 235/2/4 236/2/4 242/2/4
f 242/2/4 236/2/4 243/2/4
f 236/5/4 237/5/4 244/5/4
f 243/2/4 236/2/4 244/2/4
f 237/5/4 204/5/4 245/5/4
f 244/5/4 237/5/4 245/5/4
f 204/3/4 238/3/4 246/3/4
f 239/3/4 240/3/4 246/3/4
f 238/3/4 239/3/4 246/3/4
f 240/5/4 241/5/4 247/5/4
f 246/3/4 240/3/4 247/3/4
f 241/5/4 214/5/4 248/5/4
f 247/5/4 241/5/4 248/5/4
f 227/5/4 232/5/4 249/5/4
f 232/5/4 233/5/4 249/5/4
f 233/1/4 242/1/4 250/1/4
f 249/5/4 233/5/4 250/5/4
f 242/1/4 243/1/4 250/1/4
f 250/1/4 243/1/4 251/1/4
f 244/2/4 245/2/4 252/2/4
f 251/1/4 243/1/4 252/1/4
f 243/2/4 244/2/4 252/2/4
f 252/2/4 245/2/4 253/2/4
f 245/5/4 204/5/4 254/5/4
f 253/2/4 245/2/4 254/2/4
f 204/3/4 246/3/4 255/3/4
f 254/5/4 204/5/4 255/5/4
f 246/5/4 247/5/4 256/5/4
f 255/3/4 246/3/4 256/3/4
f 256/5/4 247/5/4 257/5/4
f 247/4/4 248/4/4 258/4/4
f 257/5/4 247/5/4 258/5/4
f 227/5/4 249/5/4 259/5/4
f 226/3/4 227/3/4 259/3/4
f 249/3/4 250/3/4 260/3/4
f 259/5/4 249/5/4 260/5/4
f 252/1/4 253/1/4 261/1/4
f 250/5/4 251/5/4 261/5/4
f 251/1/4 252/1/4 261/1/4
f 261/1/4 253/1/4 262/1/4
f 254/2/4 255/2/4 263/2/4
f 262/1/4 253/1/4 263/1/4
f 253/2/4 254/2/4 263/2/4
f 263/2/4 255/2/4 264/2/4
f 256/5/4 257/5/4 265/5/4
f 264/2/4 255/2/4 265/2/4
f 255/5/4 256/5/4 265/5/4
f 265/5/4 257/5/4 266/5/4
f 215/3/4 207/3/4 267/3/4
f 214/3/4 215/3/4 267/3/4
f 207/5/4 190/5/4 268/5/4
f 267/3/4 207/3/4 268/3/4
f 190/4/4 168/4/4 269/4/4
f 268/5/4 190/5/4 269/5/4
f 180/5/4 208/5/4 270/5/4
f 167/4/4 180/4/4 270/4/4
f 208/3/4 220/3/4 271/3/4
f 270/5/4 208/5/4 271/5/4
f 220/5/4 221/5/4 272/5/4
f 271/3/4 220/3/4 272/3/4
f 259/3/4 260/3/4 273/3/4
f 272/5/4 221/5/4 273/5/4
f 226/3/4 259/3/4 273/3/4
f 221/3/4 226/3/4 273/3/4
f 273/3/4 260/3/4 274/3/4
f 260/3/4 250/3/4 275/3/4
f 274/3/4 260/3/4 275/3/4
f 261/5/4 262/5/4 275/5/4
f 250/5/4 261/5/4 275/5/4
f 263/1/4 264/1/4 276/1/4
f 275/5/4 262/5/4 276/5/4
f 262/1/4 263/1/4 276/1/4
f 264/2/4 265/2/4 277/2/4
f 276/1/4 264/1/4 277/1/4
f 265/2/4 266/2/4 277/2/4
f 277/2/4 266/2/4 278/2/4
f 266/5/4 257/5/4 279/5/4
f 278/2/4 266/2/4 279/2/4
f 257/4/4 258/4/4 280/4/4
f 279/5/4 257/5/4 280/5/4
f 280/4/4 258/4/4 281/4/4
f 214/3/4 267/3/4 282/3/4
f 248/5/4 214/5/4 282/5/4
f 267/5/4 268/5/4 283/5/4
f 282/3/4 267/3/4 283/3/4
f 268/4/4 269/4/4 284/4/4
f 283/5/4 268/5/4 284/5/4
f 271/5/4 272/5/4 285/5/4
f 270/4/4 271/4/4 285/4/4
f 273/3/4 274/3/4 286/3/4
f 285/5/4 272/5/4 286/5/4
f 272/3/4 273/3/4 286/3/4
f 274/5/4 275/5/4 287/5/4
f 286/3/4 274/3/4 287/3/4
f 275/4/4 276/4/4 288/4/4
f 287/5/4 275/5/4 288/5/4
f 276/5/4 277/5/4 289/5/4
f 288/4/4 276/4/4 289/4/4
f 277/1/4 278/1/4 290/1/4
f 289/5/4 277/5/4 290/5/4
f 279/2/4 280/2/4 291/2/4
f 290/1/4 278/1/4 291/1/4
f 278/2/4 279/2/4 291/2/4
f 291/2/4 280/2/4 292/2/4
f 280/5/4 281/5/4 293/5/4
f 292/2/4 280/2/4 293/2/4
f 281/4/4 258/4/4 294/4/4
f 293/5/4 281/5/4 294/5/4
f 258/4/4 248/4/4 295/4/4
f 294/4/4 258/4/4 295/4/4
f 248/5/4 282/5/4 296/5/4
f 295/4/4 248/4/4 296/4/4
f 282/5/4 283/5/4 296/5/4
f 283/4/4 284/4/4 297/4/4
f 296/5/4 283/5/4 297/5/4
f 286/5/4 287/5/4 298/5/4
f 285/4/4 286/4/4 298/4/4
f 289/4/4 290/4/4 299/4/4
f 298/5/4 287/5/4 299/5/4
f 288/4/4 289/4/4 299/4/4
f 287/4/4 288/4/4 299/4/4
f 290/5/4 291/5/4 300/5/4
f 299/4/4 290/4/4 300/4/4
f 291/5/4 292/5/4 300/5/4
f 292/2/4 293/2/4 301/2/4
f 300/5/4 292/5/4 301/5/4
f 293/2/4 294/2/4 301/2/4
f 294/5/4 295/5/4 302/5/4
f 301/2/4 294/2/4 302/2/4
f 300/4/4 301/4/4 303/4/4
f 299/4/4 300/4/4 303/4/4
f 301/5/4 302/5/4 303/5/4
f 298/4/4 299/4/4 303/4/4
f 302/5/4 295/5/4 304/5/4
f 303/5/4 302/5/4 304/5/4
f 296/4/4 297/4/4 304/4/4
f 295/4/4 296/4/4 304/4/4
f 165/3/4 167/3/4 305/3/4
f 298/4/4 303/4/4 305/4/4
f 303/4/4 304/4/4 305/4/4
f 270/4/4 285/4/4 305/4/4
f 285/4/4 298/4/4 305/4/4
f 167/4/4 270/4/4 305/4/4
f 304/4/4 297/4/4 306/4/4
f 305/4/4 304/4/4 306/4/4
f 168/3/4 166/3/4 306/3/4
f 269/4/4 168/4/4 306/4/4
f 297/4/4 284/4/4 306/4/4
f 284/4/4 269/4/4 306/4/4
f 165/3/4 305/3/4 307/3/4
f 305/3/4 306/3/4 307/3/4
f 306/3/4 166/3/4 308/3/4
f 307/3/4 306/3/4 308/3/4
f 311/3/5 310/3/5 309/3/5
f 312/3/5 310/3/5 311/3/5
f 315/3/5 314/3/5 313/3/5
f 316/3/5 314/3/5 315/3/5
f 317/3/6 318/3/6 319/3/6
f 319/3/6 318/3/6 320/3/6
f 321/3/6 322/3/6 323/3/6
f 323/3/6 322/3/6 324/3/6
