# MagicaVoxel @ Ephtracy

# group
o 

# material
mtllib website6.vox.mtl
usemtl palette

# normals
vn -1 0 0
vn 1 0 0
vn 0 0 1
vn 0 0 -1
vn 0 -1 0
vn 0 1 0

# texcoords
vt 0.373047 0.5
vt 0.892578 0.5
vt 0.994141 0.5

# verts
v -4.8 3.1 -7.8
v -4.8 3.1 -8
v -4.8 7.6 -7.8
v -4.8 7.6 -8
v -2.1 3.5 -7.8
v -2.1 3.5 -7.9
v -2.1 7.2 -7.8
v -2.1 7.2 -7.9
v -4.5 3.5 -7.8
v -4.5 3.5 -7.9
v -4.5 7.2 -7.8
v -4.5 7.2 -7.9
v -1.8 3.1 -7.8
v -1.8 3.1 -8
v -1.8 7.6 -7.8
v -1.8 7.6 -8
v -4.8 3.1 -7.8
v -4.8 7.6 -7.8
v -4.5 3.5 -7.8
v -4.5 7.2 -7.8
v -2.1 3.5 -7.8
v -2.1 7.2 -7.8
v -1.8 3.1 -7.8
v -1.8 7.6 -7.8
v -4.5 3.5 -7.9
v -4.5 7.2 -7.9
v -4.2 4.3 -7.9
v -4.2 5.2 -7.9
v -4.2 5.3 -7.9
v -4.2 6.1 -7.9
v -4.1 5.1 -7.9
v -4.1 5.2 -7.9
v -4.1 5.3 -7.9
v -3.9 4.9 -7.9
v -3.9 5.1 -7.9
v -3.9 5.2 -7.9
v -3.9 5.4 -7.9
v -3.8 4.8 -7.9
v -3.8 4.9 -7.9
v -3.8 5 -7.9
v -3.8 5.3 -7.9
v -3.8 5.4 -7.9
v -3.8 5.5 -7.9
v -3.8 6.1 -7.9
v -3.8 6.3 -7.9
v -3.7 4.8 -7.9
v -3.7 4.9 -7.9
v -3.7 5 -7.9
v -3.7 5.3 -7.9
v -3.7 5.4 -7.9
v -3.7 5.5 -7.9
v -3.7 6.3 -7.9
v -3.7 6.4 -7.9
v -3.6 4.9 -7.9
v -3.6 5.1 -7.9
v -3.6 5.2 -7.9
v -3.6 5.4 -7.9
v -3.5 6.1 -7.9
v -3.5 6.2 -7.9
v -3.1 6.1 -7.9
v -3.1 6.2 -7.9
v -3 4.9 -7.9
v -3 5.1 -7.9
v -3 5.2 -7.9
v -3 5.4 -7.9
v -2.9 4.8 -7.9
v -2.9 4.9 -7.9
v -2.9 5 -7.9
v -2.9 5.3 -7.9
v -2.9 5.4 -7.9
v -2.9 5.5 -7.9
v -2.9 6.3 -7.9
v -2.9 6.4 -7.9
v -2.8 4.8 -7.9
v -2.8 4.9 -7.9
v -2.8 5 -7.9
v -2.8 5.3 -7.9
v -2.8 5.4 -7.9
v -2.8 5.5 -7.9
v -2.8 6.1 -7.9
v -2.8 6.3 -7.9
v -2.7 4.9 -7.9
v -2.7 5.1 -7.9
v -2.7 5.2 -7.9
v -2.7 5.4 -7.9
v -2.5 5.1 -7.9
v -2.5 5.2 -7.9
v -2.5 5.3 -7.9
v -2.4 4.3 -7.9
v -2.4 5.2 -7.9
v -2.4 5.3 -7.9
v -2.4 6.1 -7.9
v -2.1 3.5 -7.9
v -2.1 7.2 -7.9
v -4.8 3.1 -8
v -4.8 7.6 -8
v -4.5 3.5 -8
v -4.5 7.2 -8
v -4.2 4.3 -8
v -4.2 5.2 -8
v -4.2 5.3 -8
v -4.2 6.1 -8
v -4.1 5.1 -8
v -4.1 5.2 -8
v -4.1 5.3 -8
v -3.9 4.9 -8
v -3.9 5.1 -8
v -3.9 5.2 -8
v -3.9 5.4 -8
v -3.8 4.8 -8
v -3.8 4.9 -8
v -3.8 5 -8
v -3.8 5.3 -8
v -3.8 5.4 -8
v -3.8 5.5 -8
v -3.8 6.1 -8
v -3.8 6.3 -8
v -3.7 4.8 -8
v -3.7 4.9 -8
v -3.7 5 -8
v -3.7 5.3 -8
v -3.7 5.4 -8
v -3.7 5.5 -8
v -3.7 6.3 -8
v -3.7 6.4 -8
v -3.6 4.9 -8
v -3.6 5.1 -8
v -3.6 5.2 -8
v -3.6 5.4 -8
v -3.5 6.1 -8
v -3.5 6.2 -8
v -3.1 6.1 -8
v -3.1 6.2 -8
v -3 4.9 -8
v -3 5.1 -8
v -3 5.2 -8
v -3 5.4 -8
v -2.9 4.8 -8
v -2.9 4.9 -8
v -2.9 5 -8
v -2.9 5.3 -8
v -2.9 5.4 -8
v -2.9 5.5 -8
v -2.9 6.3 -8
v -2.9 6.4 -8
v -2.8 4.8 -8
v -2.8 4.9 -8
v -2.8 5 -8
v -2.8 5.3 -8
v -2.8 5.4 -8
v -2.8 5.5 -8
v -2.8 6.1 -8
v -2.8 6.3 -8
v -2.7 4.9 -8
v -2.7 5.1 -8
v -2.7 5.2 -8
v -2.7 5.4 -8
v -2.5 5.1 -8
v -2.5 5.2 -8
v -2.5 5.3 -8
v -2.4 4.3 -8
v -2.4 5.2 -8
v -2.4 5.3 -8
v -2.4 6.1 -8
v -2.1 3.5 -8
v -2.1 7.2 -8
v -1.8 3.1 -8
v -1.8 7.6 -8
v -4.8 3.1 -7.8
v -1.8 3.1 -7.8
v -4.8 3.1 -8
v -1.8 3.1 -8
v -4.5 7.2 -7.8
v -2.1 7.2 -7.8
v -4.5 7.2 -7.9
v -2.1 7.2 -7.9
v -4.5 3.5 -7.8
v -2.1 3.5 -7.8
v -4.5 3.5 -7.9
v -2.1 3.5 -7.9
v -4.8 7.6 -7.8
v -1.8 7.6 -7.8
v -4.8 7.6 -8
v -1.8 7.6 -8

# faces
f 3/1/1 2/1/1 1/1/1
f 4/1/1 2/1/1 3/1/1
f 7/1/1 6/1/1 5/1/1
f 8/1/1 6/1/1 7/1/1
f 9/1/2 10/1/2 11/1/2
f 11/1/2 10/1/2 12/1/2
f 13/1/2 14/1/2 15/1/2
f 15/1/2 14/1/2 16/1/2
f 19/1/3 18/1/3 17/1/3
f 20/1/3 18/1/3 19/1/3
f 21/1/3 19/1/3 17/1/3
f 22/1/3 18/1/3 20/1/3
f 23/1/3 21/1/3 17/1/3
f 23/1/3 22/1/3 21/1/3
f 24/1/3 18/1/3 22/1/3
f 24/1/3 22/1/3 23/1/3
f 27/2/3 26/2/3 25/2/3
f 28/2/3 26/2/3 27/2/3
f 29/2/3 26/2/3 28/2/3
f 30/2/3 26/2/3 29/2/3
f 31/3/3 28/3/3 27/3/3
f 32/2/3 29/2/3 28/2/3
f 32/3/3 28/3/3 31/3/3
f 33/3/3 30/3/3 29/3/3
f 33/2/3 29/2/3 32/2/3
f 34/3/3 31/3/3 27/3/3
f 35/2/3 32/2/3 31/2/3
f 35/3/3 31/3/3 34/3/3
f 36/3/3 33/3/3 32/3/3
f 36/2/3 32/2/3 35/2/3
f 37/3/3 30/3/3 33/3/3
f 37/3/3 33/3/3 36/3/3
f 38/3/3 34/3/3 27/3/3
f 39/2/3 36/2/3 35/2/3
f 39/3/3 34/3/3 38/3/3
f 39/2/3 35/2/3 34/2/3
f 39/2/3 37/2/3 36/2/3
f 40/2/3 37/2/3 39/2/3
f 41/2/3 37/2/3 40/2/3
f 42/3/3 30/3/3 37/3/3
f 42/2/3 37/2/3 41/2/3
f 43/3/3 30/3/3 42/3/3
f 44/2/3 26/2/3 30/2/3
f 44/3/3 30/3/3 43/3/3
f 45/2/3 26/2/3 44/2/3
f 46/3/3 38/3/3 27/3/3
f 46/2/3 39/2/3 38/2/3
f 46/2/3 40/2/3 39/2/3
f 47/2/3 40/2/3 46/2/3
f 48/3/3 41/3/3 40/3/3
f 48/2/3 40/2/3 47/2/3
f 49/2/3 43/2/3 42/2/3
f 49/3/3 41/3/3 48/3/3
f 49/2/3 42/2/3 41/2/3
f 50/2/3 43/2/3 49/2/3
f 51/3/3 45/3/3 44/3/3
f 51/2/3 43/2/3 50/2/3
f 51/3/3 44/3/3 43/3/3
f 52/2/3 26/2/3 45/2/3
f 52/3/3 45/3/3 51/3/3
f 53/2/3 26/2/3 52/2/3
f 54/2/3 48/2/3 47/2/3
f 54/3/3 47/3/3 46/3/3
f 54/2/3 50/2/3 49/2/3
f 54/2/3 49/2/3 48/2/3
f 55/2/3 50/2/3 54/2/3
f 56/2/3 50/2/3 55/2/3
f 57/3/3 51/3/3 50/3/3
f 57/2/3 50/2/3 56/2/3
f 57/3/3 53/3/3 52/3/3
f 57/3/3 52/3/3 51/3/3
f 58/3/3 57/3/3 56/3/3
f 58/3/3 53/3/3 57/3/3
f 59/3/3 53/3/3 58/3/3
f 60/3/3 58/3/3 56/3/3
f 60/2/3 59/2/3 58/2/3
f 61/3/3 53/3/3 59/3/3
f 61/2/3 59/2/3 60/2/3
f 62/3/3 55/3/3 54/3/3
f 62/3/3 54/3/3 46/3/3
f 63/2/3 56/2/3 55/2/3
f 63/3/3 55/3/3 62/3/3
f 64/3/3 61/3/3 60/3/3
f 64/2/3 56/2/3 63/2/3
f 64/3/3 60/3/3 56/3/3
f 65/3/3 61/3/3 64/3/3
f 66/3/3 62/3/3 46/3/3
f 66/3/3 46/3/3 27/3/3
f 67/2/3 63/2/3 62/2/3
f 67/3/3 62/3/3 66/3/3
f 67/2/3 65/2/3 64/2/3
f 67/2/3 64/2/3 63/2/3
f 68/2/3 65/2/3 67/2/3
f 69/2/3 65/2/3 68/2/3
f 70/3/3 61/3/3 65/3/3
f 70/2/3 65/2/3 69/2/3
f 71/3/3 61/3/3 70/3/3
f 72/3/3 53/3/3 61/3/3
f 72/3/3 61/3/3 71/3/3
f 73/2/3 26/2/3 53/2/3
f 73/3/3 53/3/3 72/3/3
f 74/3/3 66/3/3 27/3/3
f 74/2/3 67/2/3 66/2/3
f 74/2/3 68/2/3 67/2/3
f 75/2/3 68/2/3 74/2/3
f 76/3/3 69/3/3 68/3/3
f 76/2/3 68/2/3 75/2/3
f 77/2/3 71/2/3 70/2/3
f 77/3/3 69/3/3 76/3/3
f 77/2/3 70/2/3 69/2/3
f 78/2/3 71/2/3 77/2/3
f 79/3/3 72/3/3 71/3/3
f 79/2/3 71/2/3 78/2/3
f 80/3/3 72/3/3 79/3/3
f 81/2/3 73/2/3 72/2/3
f 81/3/3 72/3/3 80/3/3
f 82/2/3 78/2/3 77/2/3
f 82/3/3 75/3/3 74/3/3
f 82/2/3 76/2/3 75/2/3
f 82/2/3 77/2/3 76/2/3
f 83/2/3 78/2/3 82/2/3
f 84/2/3 78/2/3 83/2/3
f 85/3/3 79/3/3 78/3/3
f 85/2/3 78/2/3 84/2/3
f 85/3/3 80/3/3 79/3/3
f 86/2/3 84/2/3 83/2/3
f 86/3/3 83/3/3 82/3/3
f 87/3/3 85/3/3 84/3/3
f 87/2/3 84/2/3 86/2/3
f 88/3/3 85/3/3 87/3/3
f 89/2/3 27/2/3 25/2/3
f 89/3/3 86/3/3 82/3/3
f 89/3/3 74/3/3 27/3/3
f 89/3/3 87/3/3 86/3/3
f 89/3/3 82/3/3 74/3/3
f 90/2/3 88/2/3 87/2/3
f 90/3/3 87/3/3 89/3/3
f 91/3/3 85/3/3 88/3/3
f 91/2/3 88/2/3 90/2/3
f 92/2/3 81/2/3 80/2/3
f 92/3/3 85/3/3 91/3/3
f 92/3/3 80/3/3 85/3/3
f 93/2/3 90/2/3 89/2/3
f 93/2/3 91/2/3 90/2/3
f 93/2/3 92/2/3 91/2/3
f 93/2/3 89/2/3 25/2/3
f 94/2/3 81/2/3 92/2/3
f 94/2/3 92/2/3 93/2/3
f 94/2/3 73/2/3 81/2/3
f 94/2/3 26/2/3 73/2/3
f 95/1/4 96/1/4 97/1/4
f 97/1/4 96/1/4 98/1/4
f 97/2/4 98/2/4 99/2/4
f 99/2/4 98/2/4 100/2/4
f 100/2/4 98/2/4 101/2/4
f 101/2/4 98/2/4 102/2/4
f 99/3/4 100/3/4 103/3/4
f 100/2/4 101/2/4 104/2/4
f 103/3/4 100/3/4 104/3/4
f 101/3/4 102/3/4 105/3/4
f 104/2/4 101/2/4 105/2/4
f 99/3/4 103/3/4 106/3/4
f 103/2/4 104/2/4 107/2/4
f 106/3/4 103/3/4 107/3/4
f 104/3/4 105/3/4 108/3/4
f 107/2/4 104/2/4 108/2/4
f 105/3/4 102/3/4 109/3/4
f 108/3/4 105/3/4 109/3/4
f 99/3/4 106/3/4 110/3/4
f 107/2/4 108/2/4 111/2/4
f 110/3/4 106/3/4 111/3/4
f 106/2/4 107/2/4 111/2/4
f 108/2/4 109/2/4 111/2/4
f 111/2/4 109/2/4 112/2/4
f 112/2/4 109/2/4 113/2/4
f 109/3/4 102/3/4 114/3/4
f 113/2/4 109/2/4 114/2/4
f 114/3/4 102/3/4 115/3/4
f 102/2/4 98/2/4 116/2/4
f 115/3/4 102/3/4 116/3/4
f 116/2/4 98/2/4 117/2/4
f 99/3/4 110/3/4 118/3/4
f 110/2/4 111/2/4 118/2/4
f 111/2/4 112/2/4 118/2/4
f 118/2/4 112/2/4 119/2/4
f 112/3/4 113/3/4 120/3/4
f 119/2/4 112/2/4 120/2/4
f 114/2/4 115/2/4 121/2/4
f 120/3/4 113/3/4 121/3/4
f 113/2/4 114/2/4 121/2/4
f 121/2/4 115/2/4 122/2/4
f 116/3/4 117/3/4 123/3/4
f 122/2/4 115/2/4 123/2/4
f 115/3/4 116/3/4 123/3/4
f 117/2/4 98/2/4 124/2/4
f 123/3/4 117/3/4 124/3/4
f 124/2/4 98/2/4 125/2/4
f 119/2/4 120/2/4 126/2/4
f 118/3/4 119/3/4 126/3/4
f 121/2/4 122/2/4 126/2/4
f 120/2/4 121/2/4 126/2/4
f 126/2/4 122/2/4 127/2/4
f 127/2/4 122/2/4 128/2/4
f 122/3/4 123/3/4 129/3/4
f 128/2/4 122/2/4 129/2/4
f 124/3/4 125/3/4 129/3/4
f 123/3/4 124/3/4 129/3/4
f 128/3/4 129/3/4 130/3/4
f 129/3/4 125/3/4 130/3/4
f 130/3/4 125/3/4 131/3/4
f 128/3/4 130/3/4 132/3/4
f 130/2/4 131/2/4 132/2/4
f 131/3/4 125/3/4 133/3/4
f 132/2/4 131/2/4 133/2/4
f 126/3/4 127/3/4 134/3/4
f 118/3/4 126/3/4 134/3/4
f 127/2/4 128/2/4 135/2/4
f 134/3/4 127/3/4 135/3/4
f 132/3/4 133/3/4 136/3/4
f 135/2/4 128/2/4 136/2/4
f 128/3/4 132/3/4 136/3/4
f 136/3/4 133/3/4 137/3/4
f 118/3/4 134/3/4 138/3/4
f 99/3/4 118/3/4 138/3/4
f 134/2/4 135/2/4 139/2/4
f 138/3/4 134/3/4 139/3/4
f 136/2/4 137/2/4 139/2/4
f 135/2/4 136/2/4 139/2/4
f 139/2/4 137/2/4 140/2/4
f 140/2/4 137/2/4 141/2/4
f 137/3/4 133/3/4 142/3/4
f 141/2/4 137/2/4 142/2/4
f 142/3/4 133/3/4 143/3/4
f 133/3/4 125/3/4 144/3/4
f 143/3/4 133/3/4 144/3/4
f 125/2/4 98/2/4 145/2/4
f 144/3/4 125/3/4 145/3/4
f 99/3/4 138/3/4 146/3/4
f 138/2/4 139/2/4 146/2/4
f 139/2/4 140/2/4 146/2/4
f 146/2/4 140/2/4 147/2/4
f 140/3/4 141/3/4 148/3/4
f 147/2/4 140/2/4 148/2/4
f 142/2/4 143/2/4 149/2/4
f 148/3/4 141/3/4 149/3/4
f 141/2/4 142/2/4 149/2/4
f 149/2/4 143/2/4 150/2/4
f 143/3/4 144/3/4 151/3/4
f 150/2/4 143/2/4 151/2/4
f 151/3/4 144/3/4 152/3/4
f 144/2/4 145/2/4 153/2/4
f 152/3/4 144/3/4 153/3/4
f 149/2/4 150/2/4 154/2/4
f 146/3/4 147/3/4 154/3/4
f 147/2/4 148/2/4 154/2/4
f 148/2/4 149/2/4 154/2/4
f 154/2/4 150/2/4 155/2/4
f 155/2/4 150/2/4 156/2/4
f 150/3/4 151/3/4 157/3/4
f 156/2/4 150/2/4 157/2/4
f 151/3/4 152/3/4 157/3/4
f 155/2/4 156/2/4 158/2/4
f 154/3/4 155/3/4 158/3/4
f 156/3/4 157/3/4 159/3/4
f 158/2/4 156/2/4 159/2/4
f 159/3/4 157/3/4 160/3/4
f 97/2/4 99/2/4 161/2/4
f 154/3/4 158/3/4 161/3/4
f 99/3/4 146/3/4 161/3/4
f 158/3/4 159/3/4 161/3/4
f 146/3/4 154/3/4 161/3/4
f 159/2/4 160/2/4 162/2/4
f 161/3/4 159/3/4 162/3/4
f 160/3/4 157/3/4 163/3/4
f 162/2/4 160/2/4 163/2/4
f 152/2/4 153/2/4 164/2/4
f 163/3/4 157/3/4 164/3/4
f 157/3/4 152/3/4 164/3/4
f 95/1/4 97/1/4 165/1/4
f 161/2/4 162/2/4 165/2/4
f 163/2/4 164/2/4 165/2/4
f 162/2/4 163/2/4 165/2/4
f 97/2/4 161/2/4 165/2/4
f 164/2/4 153/2/4 166/2/4
f 165/2/4 164/2/4 166/2/4
f 98/1/4 96/1/4 166/1/4
f 153/2/4 145/2/4 166/2/4
f 145/2/4 98/2/4 166/2/4
f 95/1/4 165/1/4 167/1/4
f 165/1/4 166/1/4 167/1/4
f 166/1/4 96/1/4 168/1/4
f 167/1/4 166/1/4 168/1/4
f 171/1/5 170/1/5 169/1/5
f 172/1/5 170/1/5 171/1/5
f 175/1/5 174/1/5 173/1/5
f 176/1/5 174/1/5 175/1/5
f 177/1/6 178/1/6 179/1/6
f 179/1/6 178/1/6 180/1/6
f 181/1/6 182/1/6 183/1/6
f 183/1/6 182/1/6 184/1/6
